<svg xmlns="http://www.w3.org/2000/svg" version="1.1" xmlns:xlink="http://www.w3.org/1999/xlink" xmlns:svgjs="http://svgjs.dev/svgjs" width="100%" height="100%" viewBox="0 0 1000 600"><rect width="1000" height="600" x="0" y="0" fill="transparent"/><g><rect width="333.3333333333333" height="333.3333333333333" y="77.77777014838344" fill="transparent" transform="matrix(2.2499999313354513,0,0,2.2499999313354517,0,-249.99999084472722)" x="55.55555725097656"/><path d="M113.70193773013267 319.2396076742409L86.54625989985753 319.2396076742409Q89.062842112577 308.7050774814618 93.39370452516398 295.7417528275697Q97.69530435388214 282.7784281736775 103.28445787282885 268.673862748901Q108.87361139177557 254.5692973241245 114.75539074941058 240.64030740256098L114.75539074941058 240.64030740256098Q120.66643269091443 226.7405800648663 126.13853587438584 214.0113560819248Q131.6106390578572 201.2528695151145 138.77997210572082 188.2017571096159L138.77997210572082 188.2017571096159Q140.27236388303118 185.65591231302764 141.4136046539156 183.54900627447182Q142.58410800866884 181.44210023591597 144.04723720211038 179.97897104247443L144.04723720211038 179.97897104247443Q135.82445113496888 180.1838091295562 126.46042429694296 181.9688267455549Q117.09639745891707 183.75384436155363 108.55172296921842 186.91420341938735Q100.00704847951978 190.07456247722106 94.00821878640943 194.28837455433276Q88.00938909329909 198.5021866314444 86.31215922890689 203.56461364075213L86.31215922890689 203.56461364075213Q86.10732114182507 204.20839048586643 85.49280688057962 204.20839048586643L85.49280688057962 204.20839048586643Q83.59073892910561 204.20839048586643 83.59073892910561 201.2528695151145L83.59073892910561 201.2528695151145Q83.59073892910561 200.60909267000025 84.00041510326925 199.3508015636405L84.00041510326925 199.3508015636405Q85.90248305474326 193.87869838016908 88.74095369001986 189.66488630305744Q91.57942432529646 185.4510742259458 94.53494529604839 182.4955532551939L94.53494529604839 182.4955532551939Q101.49944025683016 175.32622020733027 110.13190249813529 173.7460406784134Q118.76436473944042 172.16586114949655 128.45028000002347 172.16586114949655L128.45028000002347 172.16586114949655L179.65980177047766 172.16586114949655Q188.49710209886462 172.16586114949655 195.4615970596464 173.9801413493641Q202.42609202042814 175.76515896536273 207.04958027170343 178.9255180231965L207.04958027170343 178.9255180231965Q213.1654603002891 182.93449201322636 215.8868806000904 188.7284836192549Q218.6375634837605 194.5224752252834 218.6375634837605 200.84319334095088L218.6375634837605 200.84319334095088Q218.6375634837605 210.52910860153392 214.42375140664885 218.10811782356112Q210.20993932953718 225.68712704558837 203.36249470423076 231.15923022905977Q196.51505007892433 236.66059599639996 188.087425924701 240.02579314131552Q179.65980177047766 243.39099028623107 171.02733952917254 245.0882201506233L171.02733952917254 245.0882201506233L164.26768265547258 246.34651125698306Q169.33010966478034 263.40659765251144 177.1432195577582 277.1014869031244Q184.92706686686722 290.79637615373724 193.35469102109053 301.12606825943453Q201.78231517531387 311.45576036513194 208.51270946514498 318.82993150007735L208.51270946514498 318.82993150007735Q205.35235040731123 319.44444576132275 198.82679420456196 319.44444576132275L198.82679420456196 319.44444576132275Q193.14985293400872 319.44444576132275 187.88258783761916 319.12255733876566Q182.6153227412296 318.82993150007735 182.6153227412296 318.82993150007735L182.6153227412296 318.82993150007735Q177.34805764484003 318.82993150007735 172.28563063553227 313.1237276456553Q167.22320362622452 307.4467863751021 162.5997153749492 298.49243571123975Q157.9469645398051 289.53808504737754 154.2598789723324 279.7351194513192Q150.57279340485968 269.9321538552608 148.17326152761552 261.5045297010374Q145.74446706650258 253.07690554681417 144.89585213430647 248.45341729553886L144.89585213430647 248.45341729553886Q144.89585213430647 247.8096404504246 144.77880179883115 247.19512618917915Q144.69101404722466 246.55134934406485 144.69101404722466 245.70273441186876L144.69101404722466 245.70273441186876Q144.69101404722466 244.444443305509 145.21774055686362 243.50804062170644Q145.74446706650258 242.542375354035 147.41243434702596 242.3375372669532L147.41243434702596 242.3375372669532Q157.9469645398051 241.07924616059344 166.60868936497906 238.5334013640052L166.60868936497906 238.5334013640052Q175.24115160628418 235.81198106420388 182.41048465414778 231.07144247745325Q189.55055511814254 226.33090389070267 193.99846786620486 219.2786211783144Q198.41711803039829 212.1970758820573 198.41711803039829 202.51116062147426L198.41711803039829 202.51116062147426Q198.41711803039829 194.72731331236523 194.08625561781133 188.28954486122242Q189.78465578909316 181.88103899394844 180.30357861559196 179.7741329553926L180.30357861559196 179.7741329553926Q177.75773381900365 179.13035611027829 174.91926318372703 178.9255180231965Q172.08079254845046 178.72067993611466 169.12527157769853 178.48657926516404L169.12527157769853 178.48657926516404Q164.5017833264232 184.8072973808315 159.43935631711548 193.6738602930873Q154.3769293078077 202.51116062147426 149.51934038558176 212.31412621753262Q144.69101404722466 222.11709181359097 140.36015163463767 231.6859567386987Q136.05855180591954 241.28408424767528 132.66409207713514 249.30203222773494L132.66409207713514 249.30203222773494Q130.99612479661175 253.72068239192842 127.7187154033027 262.14830654615173Q124.47056859386247 270.5759307003751 121.07610886507808 280.46668404803995Q117.71091172016251 290.3866999795737 115.28211725904954 299.54588873051773Q112.8825853818054 308.7050774814618 112.8825853818054 314.61611942296565L112.8825853818054 314.61611942296565Q112.8825853818054 317.77647848079937 113.70193773013267 319.2396076742409L113.70193773013267 319.2396076742409ZM258.025001371207 319.2396076742409L244.56421279154475 319.2396076742409Q247.0807950042642 314.38201875201503 248.01719768806677 307.0078476170696Q248.98286295573823 299.6336764821242 249.30475137829535 291.3231026633762Q249.5973772169837 283.01252884462826 250.03631597501612 275.1994189516504L250.03631597501612 275.1994189516504Q250.44599214917977 267.825247816705 250.65083023626158 260.0414005075959Q250.88493090721224 252.22829061461803 250.88493090721224 244.23960521842722L250.88493090721224 244.23960521842722Q250.88493090721224 233.06129818053378 250.12410372662262 222.2048795651975Q249.39253912990188 211.37772353373 247.49047117842784 202.30632253439242L247.49047117842784 202.30632253439242Q246.67111883010057 197.44873361216648 244.2423243689876 193.030083447973Q241.81352990787462 188.61143328377952 238.24349467587726 188.61143328377952L238.24349467587726 188.61143328377952Q236.34142672440325 188.61143328377952 234.1174703503721 190.19161281269643Q231.92277656020974 191.7717923416133 229.17209367653965 195.98560441872493L229.17209367653965 195.98560441872493Q228.96725558945784 196.3952805928886 228.44052907981887 195.78076633164315Q227.9138025701799 195.13698948652885 228.11864065726175 194.72731331236523L228.11864065726175 194.72731331236523Q229.81587052165392 189.46004821597566 234.84903494709286 183.34416818738998Q239.91146195640061 177.22828815880428 245.61766581082264 173.21931416877447L245.61766581082264 173.21931416877447Q248.54392419770573 171.11240813021863 250.97271865881874 170.29305578189138Q253.40151311993168 169.4444408496953 255.50841915848753 169.4444408496953L255.50841915848753 169.4444408496953Q261.829137274155 169.4444408496953 265.19433441907063 175.85294671696926Q268.5595315639861 182.29071516811206 270.0519233412965 190.30866314817175L270.0519233412965 190.30866314817175Q271.51505253473806 198.29734854436262 272.041779044377 209.56344333386252Q272.568505554016 220.85880070723127 272.568505554016 233.06129818053378L272.568505554016 233.06129818053378Q272.568505554016 245.9075724989506 272.15882937985236 258.54900873028555Q271.7198906218199 271.1904449616205 271.10537636057444 281.11046089315425Q270.4615995154602 291.0012142408191 270.0519233412965 295.85880316304497L270.0519233412965 295.85880316304497Q277.2212563891601 285.93878723151136 285.6488805433834 272.477998651849Q294.07650469760677 258.987947488318 302.79675469051836 244.23960521842722Q311.54626726729884 229.4912629485364 319.35937716027667 215.47448527536633Q327.1432244693857 201.45770760219634 333.14205416249604 190.07456247722106Q339.14088385560643 178.72067993611466 341.8915667392765 172.16586114949655L341.8915667392765 172.16586114949655L360.85372108627905 172.16586114949655Q357.6933620284452 177.22828815880428 350.7288670676635 188.08470677414059Q343.79363469075054 198.94112538947687 334.6344459398065 213.0456908142534Q325.44599460499353 227.17951882289876 315.35040317024686 242.6594256895103Q305.22554915163136 258.1393325561219 295.74447197813015 272.77062449053744Q286.26339480462883 287.4311790088217 278.8892236696835 298.81432413379696L278.8892236696835 298.81432413379696Q274.8802496796536 305.33988033654623 270.57864985093545 311.5435481167384Q266.2477874383485 317.77647848079937 259.92706932268095 319.0347695871592L259.92706932268095 319.0347695871592Q259.31255506143555 319.2396076742409 258.025001371207 319.2396076742409L258.025001371207 319.2396076742409Z " fill="#f19041" transform="matrix(2.2499999313354513,0,0,2.2499999313354517,0,-249.99999084472722)"/><path d="MNaN 244.44444105360233 " fill="black" transform="matrix(2.2499999313354513,0,0,2.2499999313354517,0,-249.99999084472722)"/></g></svg>