<svg xmlns="http://www.w3.org/2000/svg" version="1.1" xmlns:xlink="http://www.w3.org/1999/xlink" xmlns:svgjs="http://svgjs.dev/svgjs" width="100%" height="100%" viewBox="0 0 1000 600"><rect width="1000" height="600" x="0" y="0" fill="transparent"/><g><rect width="333.3333333333333" height="333.3333333333333" y="77.77777014838344" fill="transparent" transform="matrix(2.2499999313354513,0,0,2.2499999313354517,0,-249.99999084472722)" x="55.55555725097656"/><path d="M164.14028669596712 249.20251349271243L164.14028669596712 249.20251349271243Q165.13077724844374 251.20707770605796 166.38068199323567 252.92864461869587Q167.63058673802755 254.67379463972608 168.12583201426588 257.17360412930987L168.12583201426588 257.17360412930987Q168.78615904925027 257.99901292304037 168.78615904925027 258.98950347551704Q168.78615904925027 259.9799940279936 169.11632256674247 260.97048458047027L169.11632256674247 260.97048458047027Q170.2718948779652 265.12111165751503 172.01704489899538 269.01232454224464Q173.76219492002562 272.9271205353664 175.41301250748663 276.39383746903457L175.41301250748663 276.39383746903457Q175.74317602497882 279.22381047611054 177.15816252851684 280.96896049714076Q178.57314903205486 282.71411051817097 178.90331254954708 285.5205004168547L178.90331254954708 285.5205004168547Q180.22396661951586 288.680636941423 181.87478420697687 291.48702684010664Q183.5491849028302 294.31699984718273 185.2000024902912 297.12338974586646L185.2000024902912 297.12338974586646Q186.02541128402171 297.61863502210474 186.85082007775222 298.113880298343Q187.67622887148275 298.63270868297366 188.69030253235164 299.293035717958L188.69030253235164 299.293035717958Q189.35062956733606 299.6231992354502 189.84587484357434 300.0241120781194Q190.34112011981267 300.4486080291807 191.16652891354317 300.77877154667294L191.16652891354317 300.77877154667294Q191.99193770727368 301.10893506416517 192.74659717582728 301.2740168229112Q193.50125664438087 301.4390985816574 194.32666543811138 301.7692620991496L194.32666543811138 301.7692620991496Q194.9869924730958 302.0994256166417 195.3879053157649 302.5946708928801Q195.8124012668263 303.0899161691184 196.3076465430646 303.4200796866106L196.3076465430646 303.4200796866106Q196.967973578049 303.60874455374903 197.62830061303345 303.84457563767194Q198.28862764801784 304.1039898299873 198.97253779139453 303.93890807124114L198.97253779139453 303.93890807124114Q201.77892769007826 305.25956214121004 203.7599087950315 305.7548074174483Q205.76447300837697 306.2500526936866 207.5803723545841 306.91037972867105L207.5803723545841 306.91037972867105Q208.40578114831462 307.24054324616327 209.65568589310652 307.5707067636554Q210.90559063789843 307.9008702811476 211.73099943162896 307.9008702811476L211.73099943162896 307.9008702811476Q213.05165350159774 308.56119731613205 213.47614945265917 309.3158567846856Q213.87706229532824 310.07051625323925 214.4666400051358 310.9666743721466Q215.05621771494327 311.8864155994463 216.0467082674199 312.64107506799996Q217.0371988198965 313.37215142816126 218.6880164073575 313.5372331869073L218.6880164073575 313.5372331869073Q219.1832616835958 313.86739670439954 219.4426758759111 314.456974414207Q219.67850695983412 315.0465521240146 220.36241710321082 315.5417974002529L220.36241710321082 315.5417974002529Q222.01323469067182 316.8624514702217 221.75382049835653 317.1926149877139Q221.51798941443352 317.52277850520613 221.35290765568743 318.0180237814444L221.35290765568743 318.0180237814444Q220.1973353444647 318.18310554019047 219.0181799248497 318.34818729893664Q217.862607613627 318.5132690576827 217.36736233738867 319.3386778514132L217.36736233738867 319.3386778514132Q216.37687178491205 319.3386778514132 215.12696704012018 319.4330102849824Q213.87706229532824 319.5273427185516 213.05165350159774 318.8434325751749L213.05165350159774 318.8434325751749Q210.245263602914 319.00851433392097 207.9105358720763 318.5132690576827Q205.59939124963088 318.0180237814444 202.27417296631657 317.6878602639522L202.27417296631657 317.6878602639522Q200.45827362010942 317.6878602639522 198.80745603264842 317.85294202269836Q197.1330553367951 318.0180237814444 195.8124012668263 317.52277850520613L195.8124012668263 317.52277850520613Q192.1570194660198 316.0370426764912 190.01095660232045 314.88147036526846Q187.84131063022883 313.7023149456535 185.5301660077834 312.3816608756847L185.5301660077834 312.3816608756847Q183.7142666615763 311.5562520819542 182.2049477244691 310.4006797707315Q180.71921189575417 309.24510745950874 178.90331254954708 308.3961155573859L178.90331254954708 308.3961155573859Q176.56858481870933 305.7548074174483 174.42252195501 303.25499792786445Q172.2764590913107 300.77877154667294 170.43697663671128 297.7837167808508L170.43697663671128 297.7837167808508Q169.7766496017269 296.6281444696282 169.35215365066549 295.96781743464373Q168.95124080799636 295.3074903996593 168.62107729050416 294.64716336467495L168.62107729050416 294.64716336467495Q167.96075025551977 293.16142753596 167.46550497928146 292.80768091007553Q166.97025970304315 292.4775173925833 166.61651307715866 291.81719035759886L166.61651307715866 291.81719035759886Q166.12126780092035 290.99178156386836 165.79110428342813 289.83620925264563Q165.46094076593593 288.680636941423 165.13077724844374 287.50148152180793L165.13077724844374 287.50148152180793Q164.80061373095154 286.0157456930931 164.47045021345934 284.600759189555Q164.14028669596712 283.20935579440936 163.6450414197288 281.8651186160482L163.6450414197288 281.8651186160482Q163.31487790223662 280.87462806357155 162.72530019242913 280.14355170341025Q162.15930559101392 279.3888922348567 161.99422383226783 278.233319923634L161.99422383226783 278.233319923634Q161.3103136888911 276.39383746903457 160.7443190874759 274.50718879765054Q160.1547413776684 272.5969570178743 159.8245778601762 270.42731104578263L159.8245778601762 270.42731104578263Q159.32933258393788 267.2907576296067 158.5746731153843 265.54560760857646Q157.84359675522296 263.80045758754625 157.51343323773077 262.14964000008524L157.51343323773077 262.14964000008524Q156.52294268525418 259.6498305105014 154.68346023065476 256.34819533557936Q152.86756088444764 253.02297705226508 151.54690681447883 250.52316756268127L151.54690681447883 250.52316756268127Q151.21674329698664 249.6977587689507 151.12241086341743 249.20251349271243Q151.05166153824052 248.70726821647415 150.53283315360991 248.37710469898192L150.53283315360991 248.37710469898192Q149.7074243598794 249.20251349271243 149.047097324895 251.20707770605796Q148.3867702899106 253.1880588110112 147.72644325492618 254.17854936348775L147.72644325492618 254.17854936348775Q145.9105439087191 257.17360412930987 145.39171552408848 258.9187541503401Q144.89647024785017 260.64032106297805 143.90597969537356 262.3147217588313L143.90597969537356 262.3147217588313Q143.41073441913525 265.6163569337533 142.09008034916644 268.1161664233372L142.09008034916644 268.1161664233372Q141.75991683167425 270.42731104578263 140.43926276170544 271.58288335700536L140.43926276170544 271.58288335700536Q139.59027085958263 274.5779381228274 138.4346985483599 277.57299288864954Q137.2791262371372 280.54446454607944 136.2886356846606 283.3744375531554L136.2886356846606 283.3744375531554Q135.9584721671684 284.86017338187037 135.4632268909301 286.18082745183915Q134.96798161469178 287.50148152180793 135.1330633734379 288.8457187001691L135.1330633734379 288.8457187001691Q135.1330633734379 290.16637277013785 134.70856742237646 291.1568633226145Q134.2840714713151 292.1473538750911 133.95390795382286 293.4915910534522L133.95390795382286 293.4915910534522Q133.12849916009236 295.8027356758977 130.39285858658553 296.29798095213596Q127.65721801307872 296.79322622837424 125.1809916318872 297.4535532633587L125.1809916318872 297.4535532633587Q124.1669179710183 297.7837167808508 122.84626390104948 298.113880298343L122.84626390104948 298.113880298343Q120.86528279609627 298.63270868297366 118.62488749882775 299.85903031937323Q116.38449220155923 301.10893506416517 114.0733475791138 300.77877154667294L114.0733475791138 300.77877154667294Q112.56402864200659 300.4486080291807 112.988524593068 299.03362152564273Q113.38943743573711 297.61863502210474 114.23842933785991 296.9583079871203L114.23842933785991 296.9583079871203Q115.06383813159042 295.14240864091323 115.95999625049782 293.32650929470617Q116.87973747779753 291.48702684010664 117.87022803027413 289.83620925264563L117.87022803027413 289.83620925264563Q118.20039154776634 288.3504734239308 119.04938344988915 287.50148152180793L119.04938344988915 287.50148152180793Q120.03987400236575 286.8411544868236 120.37003751985796 285.68558217560087L120.37003751985796 285.68558217560087Q120.70020103735015 285.35541865810865 120.93603212127316 284.86017338187037Q121.19544631358846 284.364928105632 121.36052807233457 284.03476458813986L121.36052807233457 284.03476458813986Q121.69069158982677 283.20935579440936 121.78502402339598 282.28961456710965Q121.85577334857287 281.36987333980994 122.18593686606508 280.54446454607944L122.18593686606508 280.54446454607944Q122.68118214230338 279.22381047611054 123.10567809336479 277.80882397257255Q123.50659093603389 276.39383746903457 124.35558283815669 274.74301988157356L124.35558283815669 274.74301988157356Q124.68574635564889 273.7525293290969 125.086659198318 272.76203877662033Q125.5111551493794 271.7479651157514 126.0064004256177 270.42731104578263L126.0064004256177 270.42731104578263Q126.33656394310991 269.43682049330596 126.99689097809431 268.51707926600625Q127.65721801307872 267.6209211470989 128.15246328931704 266.6304305946222L128.15246328931704 266.6304305946222Q129.14295384179363 264.2957028637845 129.66178222642424 262.88071636024654Q130.15702750266254 261.4893129651008 130.98243629639305 260.14507578673977L130.98243629639305 260.14507578673977Q132.30309036636186 256.6783588530716 134.04824038739207 253.77763652081867Q135.79339040842228 250.87691418856573 137.4442079958833 247.55169590525142L137.4442079958833 247.55169590525142Q137.7743715133755 247.05645062901309 138.1045350308677 246.6319546779517Q138.4346985483599 246.23104183528258 138.59978030710602 245.5707148002982L138.59978030710602 245.5707148002982Q139.2601073420904 245.21696817441372 139.59027085958263 244.39155938068316Q139.92043437707483 243.56615058695266 140.60434452045155 243.2359870694605L140.60434452045155 243.2359870694605Q141.26467155543594 242.24549651698388 141.59483507292813 241.25500596450726Q141.92499859042033 240.26451541203065 142.58532562540475 239.58060526865395L142.58532562540475 239.58060526865395Q144.40122497161187 236.27897009373194 145.74546214997298 232.95375181041763L145.74546214997298 232.95375181041763Q146.07562566746518 232.12834301668707 146.14637499264208 231.46801598170268Q146.2407074262113 230.8076889467183 146.57087094370348 230.1473619117339L146.57087094370348 230.1473619117339Q147.5613614961801 228.96820649211887 147.7971925801031 228.30787945713448Q148.05660677241838 227.64755242215008 148.3867702899106 227.15230714591175L148.3867702899106 227.15230714591175Q149.047097324895 225.99673483468902 149.80175679344862 224.91191184864326Q150.53283315360991 223.82708886259744 151.21674329698664 222.5064347926286L151.21674329698664 222.5064347926286Q152.04215209071714 220.0302084114371 153.43355548586283 217.9548948729147Q154.84854198940084 215.87958133439227 155.67395078313137 213.56843671194682L155.67395078313137 213.56843671194682Q156.68802444400026 212.05911777483962 156.85310620274637 211.8940360160935Q157.01818796149246 211.7289542573474 157.01818796149246 211.39879073985523L157.01818796149246 211.39879073985523Q159.1642508251918 207.2481636628104 160.909400846222 203.68711429557302Q162.65455086725223 200.12606492833575 164.47045021345934 196.3056013687831L164.47045021345934 196.3056013687831Q162.65455086725223 196.63576488627533 161.2395643637142 197.9800020646364Q159.8245778601762 199.30065613460525 158.33884203146127 199.79590141084353L158.33884203146127 199.79590141084353Q158.00867851396907 200.2911466870818 157.67851499647688 200.62131020457403Q157.34835147898468 200.95147372206625 157.01818796149246 201.28163723955842L157.01818796149246 201.28163723955842Q152.86756088444764 203.28620145290395 149.37726084238722 205.76242783409546Q145.9105439087191 208.26223732367927 143.24565266038917 211.8940360160935L143.24565266038917 211.8940360160935Q142.42024386665864 212.22419953358573 141.50050263935896 212.81377724339322Q140.60434452045155 213.3797718448084 139.75535261832874 213.89860022943904L139.75535261832874 213.89860022943904Q138.59978030710602 214.39384550567732 136.7838809608989 214.55892726442343Q134.96798161469178 214.72400902316954 133.95390795382286 213.3797718448084L133.95390795382286 213.3797718448084Q133.29358091883847 208.5924008411715 134.77931674755337 206.25767311033374Q136.2886356846606 203.94652848788834 137.6092897546294 201.61180075705064L137.6092897546294 201.61180075705064Q139.75535261832874 199.63081965209741 142.25516210791255 198.0507513898133Q144.73138848910406 196.4706831275292 147.0661162199418 194.98494729881426L147.0661162199418 194.98494729881426Q149.2121790836411 193.49921147009937 149.80175679344862 193.0039661938611Q150.3677513948638 192.50872091762275 151.05166153824052 192.15497429173828L151.05166153824052 192.15497429173828Q155.01362374814695 189.51366615180066 159.32933258393788 186.3535296272324L159.32933258393788 186.3535296272324Q161.99422383226783 184.042385004787 165.13077724844374 182.8868126935643L165.13077724844374 182.8868126935643Q168.29091377301197 181.8963221410877 170.43697663671128 181.3067444312802Q172.60662260880292 180.71716672147267 174.42252195501 179.89175792774216L174.42252195501 179.89175792774216Q179.72872134327756 178.90126737526555 184.20951193781463 177.32119911298145Q188.69030253235164 175.74113085069735 193.3361748856348 174.09031326323634L193.3361748856348 174.09031326323634Q195.64731950808022 173.76014974574412 197.72263304660262 173.6894004205672Q199.79794658512503 173.595067986998 202.27417296631657 173.4299862282519L202.27417296631657 173.4299862282519Q202.93450000130096 173.92523150449023 204.18440474609287 173.85448217931332Q205.4343094908848 173.76014974574412 206.42480004336142 173.92523150449023L206.42480004336142 173.92523150449023Q207.7454541133302 174.2553950219824 208.99535885812213 174.5148092142977Q210.245263602914 174.75064029822073 211.56591767288285 175.08080381571295L211.56591767288285 175.08080381571295Q212.55640822535946 176.0712943681895 214.4666400051358 176.49579031925094Q216.37687178491205 176.92028627031232 218.02768937237312 177.58061330529677L218.02768937237312 177.58061330529677Q219.3483434423419 178.24094034028116 220.52749886195693 178.80693494169634Q221.6830711731796 179.39651265150388 223.00372524314844 180.05683968648827L223.00372524314844 180.05683968648827Q224.15929755437116 181.37749375645706 224.08854822919426 182.39156741732597Q223.99421579562505 183.3820579698026 224.15929755437116 185.19795731600968L224.15929755437116 185.19795731600968Q224.32437931311725 186.02336610974024 224.41871174668645 186.77802557829384Q224.48946107186333 187.53268504684743 224.65454283060944 188.35809384057794L224.65454283060944 188.35809384057794Q224.65454283060944 189.01842087556233 224.91395702292476 189.51366615180066Q225.17337121524005 190.00891142803894 225.17337121524005 190.50415670427722L225.17337121524005 190.50415670427722Q225.33845297398614 193.33412971135326 225.57428405790915 196.06977028486008Q225.83369825022447 198.8054108583669 225.50353473273225 201.61180075705064L225.50353473273225 201.61180075705064Q225.17337121524005 203.61636497039612 224.32437931311725 205.00776836554186Q223.49897051938675 206.4227548690799 222.6735617256562 208.26223732367927L222.6735617256562 208.26223732367927Q221.6830711731796 209.91305491114028 220.52749886195693 211.56387249860134Q219.3483434423419 213.21469008606235 218.02768937237312 215.05417254066177L218.02768937237312 215.05417254066177Q217.53244409613478 215.38433605815393 217.10794814507338 215.62016714207695Q216.70703530240428 215.87958133439227 216.54195354365817 216.53990836937666L216.54195354365817 216.53990836937666Q214.37230757156658 218.19072595683767 212.55640822535946 219.20479961770658Q210.74050887915234 220.1952901701832 209.4198548091835 221.1857807226598L209.4198548091835 221.1857807226598Q208.7359446658068 221.51594424015198 208.07561763082242 221.8461077576442Q207.41529059583803 222.17627127513643 206.75496356085358 222.5064347926286L206.75496356085358 222.5064347926286Q206.0946365258692 223.166761827613 205.10414597339258 223.82708886259744Q204.11365542091596 224.51099900597413 203.26466351879316 225.17132604095852L203.26466351879316 225.17132604095852Q201.94400944882435 226.49198011092736 200.95351889634776 226.98722538716564Q199.96302834387114 227.48247066340397 199.63286482637892 228.63804297462664L199.63286482637892 228.63804297462664Q195.8124012668263 230.8076889467183 192.81734650100418 233.54332952022511Q189.84587484357434 236.27897009373194 186.3555748015139 238.59011471617734L186.3555748015139 238.59011471617734Q185.0349207315451 239.74568702740007 183.7850159867532 240.9248424470151Q182.5351112419613 242.08041475823777 180.88429365450028 242.90582355196827L180.88429365450028 242.90582355196827Q178.57314903205486 243.89631410444488 177.48832604600904 244.7217228981754Q176.4035030599632 245.5707148002982 174.58760371375612 245.90087831779041L174.58760371375612 245.90087831779041Q172.4415408500568 247.22153238775925 169.70590027654998 248.04694118148976Q166.97025970304315 248.87234997522026 164.14028669596712 249.20251349271243ZM201.11860065509384 184.5376302810253L201.11860065509384 184.5376302810253Q200.45827362010942 184.7027120397714 199.4677830676328 184.7027120397714Q198.45370940676392 184.7027120397714 197.29813709554122 185.03287555726362L197.29813709554122 185.03287555726362Q195.64731950808022 185.3630390747558 193.66633840312699 186.1884478684863Q191.66177418978145 187.0374397706091 189.68079308482825 187.36760328810132L189.68079308482825 187.36760328810132Q187.01590183649833 188.0279303230857 185.4594166826065 188.52317559932405Q183.8793484203224 189.01842087556233 183.219021385338 189.34858439305455L183.219021385338 189.34858439305455Q182.8888578678458 189.67874791054672 182.79452543427658 190.50415670427722Q182.72377610909967 191.32956549800778 182.3700294832152 191.82481077424606L182.3700294832152 191.82481077424606Q181.7097024482308 193.49921147009937 180.71921189575417 194.91419797363736Q179.72872134327756 196.3056013687831 179.23347606703925 197.64983854714424L179.23347606703925 197.64983854714424Q177.41757672083213 199.79590141084353 176.56858481870933 201.87121494936596Q175.74317602497882 203.94652848788834 174.91776723124832 205.76242783409546L174.91776723124832 205.76242783409546Q172.771704367549 208.5924008411715 171.592548947934 210.73846370487084L171.592548947934 210.73846370487084Q170.7671401542035 211.7289542573474 170.6020583954574 211.8232866909166Q170.43697663671128 211.8940360160935 170.43697663671128 212.22419953358573L170.43697663671128 212.22419953358573Q168.45599553175805 214.2287637469312 167.20609078696617 216.70499012812277Q165.95618604217424 219.20479961770658 164.14028669596712 221.0206989639137L164.14028669596712 221.0206989639137Q162.8196326259983 223.00168006886693 162.23005491619082 224.51099900597413Q161.6640603147756 225.99673483468902 160.3198231364145 227.15230714591175L160.3198231364145 227.15230714591175Q159.65949610143008 228.4729612158806 159.0935015000149 229.72286596067246Q158.50392379020738 230.9727707054644 157.84359675522296 232.29342477543318L157.84359675522296 232.29342477543318Q156.35786092650807 235.6186430587475 154.18821495441645 238.75519647492345L154.18821495441645 238.75519647492345Q154.18821495441645 239.58060526865395 153.78730211174735 240.0994336532846Q153.36280616068592 240.59467892952287 153.03264264319373 241.25500596450726L153.03264264319373 241.25500596450726Q153.69296967817814 241.7502512407456 154.35329671316254 241.42008772325337Q155.01362374814695 241.08992420576115 155.50886902438526 240.75976068826898L155.50886902438526 240.75976068826898Q159.32933258393788 238.59011471617734 163.81012317847492 237.01004645389324Q168.29091377301197 235.45356130000144 171.9227124654262 232.95375181041763L171.9227124654262 232.95375181041763Q175.08284898999443 231.1378524642105 177.74774023832435 229.55778420192635Q180.38904837826198 227.97771593964225 182.8888578678458 226.16181659343513L182.8888578678458 226.16181659343513Q185.3650842490373 224.84116252346635 186.68573831900613 224.0865030549127Q188.02997549736722 223.3318435863591 189.84587484357434 222.6715165513747L189.84587484357434 222.6715165513747Q191.16652891354317 221.51594424015198 192.65226474225807 220.69053544642148Q194.16158367936526 219.86512665269098 194.9869924730958 218.68597123307595L194.9869924730958 218.68597123307595Q196.8028918193029 217.20023540436105 198.28862764801784 215.29000362458473Q199.79794658512503 213.3797718448084 201.44876417258604 211.7289542573474L201.44876417258604 211.7289542573474Q202.27417296631657 211.56387249860134 202.43925472506265 211.1629596559322Q202.60433648380877 210.73846370487084 203.42974527753927 210.73846370487084L203.42974527753927 210.73846370487084Q204.77398245590038 208.92256435866366 206.68421423567668 207.50757785512567Q208.5708629070607 206.09259135158769 209.58493656792962 204.27669200538057L209.58493656792962 204.27669200538057Q210.41034536166012 202.95603793541173 210.81125820432922 201.61180075705064Q211.23575415539062 200.2911466870818 212.06116294912113 198.6403290996208L212.06116294912113 198.6403290996208Q211.73099943162896 197.29609192125972 212.65074065892864 195.90468852611397Q213.54689877783608 194.48970202257598 213.21673526034385 193.33412971135326L213.21673526034385 193.33412971135326Q212.88657174285166 192.15497429173828 211.89608119037504 191.25881617283088Q210.90559063789843 190.33907494553117 210.41034536166012 189.34858439305455L210.41034536166012 189.34858439305455Q210.08018184416792 188.0279303230857 209.65568589310652 187.36760328810132Q209.25477305043742 186.68369314472463 208.9010264245529 185.693202592248L208.9010264245529 185.693202592248Q208.24069938956853 185.3630390747558 207.7454541133302 185.03287555726362Q207.2502088370919 184.7027120397714 206.0946365258692 184.8677937985175L206.0946365258692 184.8677937985175Q205.2692277321387 184.5376302810253 203.85424122860067 184.6319627145945Q202.43925472506265 184.7027120397714 201.11860065509384 184.5376302810253ZM250.02996746072446 181.54257551520317L250.02996746072446 181.54257551520317Q248.70931339075565 181.21241199771094 247.45940864596375 180.64641739629576Q246.20950390117181 180.05683968648827 244.88884983120303 179.72667616899605L244.88884983120303 179.72667616899605Q243.89835927872642 179.39651265150388 243.47386332766501 179.82100860256526Q243.0729504849959 180.2219214452344 242.2475416912654 180.88224848021878L242.2475416912654 180.88224848021878Q241.4221328975349 181.8963221410877 240.7382227541582 182.627398501249Q240.0778957191738 183.3820579698026 239.08740516669718 184.5376302810253L239.08740516669718 184.5376302810253Q235.59710512463676 189.01842087556233 233.2859605021913 193.40487903653016Q230.9748158797459 197.8149203058903 228.6400881489082 202.10704603328892L228.6400881489082 202.10704603328892Q229.3004151838926 202.95603793541173 230.4795706035076 203.35695077808086Q231.6351429147303 203.78144672914223 232.4605517084608 204.44177376412668L232.4605517084608 204.44177376412668Q235.10185984839845 203.12111969415784 236.68192811068255 200.62131020457403Q238.26199637296668 198.14508382338252 240.0778957191738 195.81035609254482L240.0778957191738 195.81035609254482Q240.408059236666 194.32462026382987 241.4221328975349 193.16904795260714Q242.4126234500115 191.98989253299217 242.7427869675037 190.50415670427722L242.7427869675037 190.50415670427722Q242.9078687262498 189.84382966929283 242.8135362926806 189.18350263430844Q242.7427869675037 188.52317559932405 243.4031140024881 188.0279303230857L243.4031140024881 188.0279303230857Q243.7332775199803 189.34858439305455 244.06344103747253 190.00891142803894Q244.39360455496472 190.66923846302333 244.72376807245692 191.98989253299217L244.72376807245692 191.98989253299217Q245.05393158994914 195.15002905756037 244.5586863137108 198.14508382338252L244.5586863137108 198.14508382338252Q244.39360455496472 198.6403290996208 244.1577734710417 199.13557437585914Q243.89835927872642 199.63081965209741 243.7332775199803 200.2911466870818L243.7332775199803 200.2911466870818Q243.0729504849959 202.10704603328892 242.8135362926806 202.43720955078115Q242.5777052087576 202.76737306827332 242.2475416912654 203.28620145290395L242.2475416912654 203.28620145290395Q241.75229641502708 203.78144672914223 241.1627187052196 204.34744133055747Q240.57314099541207 204.93701904036496 240.24297747791988 205.59734607534935L240.24297747791988 205.59734607534935Q238.92232340795107 206.9180001453182 238.42707813171276 208.42731908242538L238.42707813171276 208.42731908242538Q237.60166933798223 208.7574825999176 237.27150582049006 209.3234772013328Q236.94134230299784 209.91305491114028 236.11593350926736 210.73846370487084L236.11593350926736 210.73846370487084Q235.26694160714453 211.39879073985523 234.77169633090625 212.15345020840883Q234.27645105466792 212.88452656857012 233.12087874344522 212.22419953358573L233.12087874344522 212.22419953358573Q230.8097341209998 212.719444809824 228.4042570649852 212.22419953358573Q225.99878000897056 211.7289542573474 223.66405227813283 211.39879073985523L223.66405227813283 211.39879073985523Q222.6735617256562 211.068627222363 222.34339820816405 210.2432184286325Q222.01323469067182 209.417809634902 221.18782589694132 209.2527278761559L221.18782589694132 209.2527278761559Q220.8576623794491 208.7574825999176 220.76332994587992 208.002823131364Q220.692580620703 207.2481636628104 220.0322535857186 206.9180001453182L220.0322535857186 206.9180001453182Q220.0322535857186 205.92750959284157 219.8671718269725 205.17285012428798Q219.67850695983412 204.44177376412668 219.8671718269725 203.61636497039612L219.8671718269725 203.61636497039612Q220.0322535857186 202.95603793541173 220.2680846696416 202.43720955078115Q220.52749886195693 201.9419642745428 220.8576623794491 201.28163723955842L220.8576623794491 201.28163723955842Q221.18782589694132 200.45622844582792 221.18782589694132 199.63081965209741Q221.18782589694132 198.8054108583669 221.6830711731796 198.14508382338252L221.6830711731796 198.14508382338252Q223.00372524314844 196.3056013687831 224.32437931311725 194.6547837813221Q225.66861649147836 193.0039661938611 226.82418880270106 190.66923846302333L226.82418880270106 190.66923846302333Q228.14484287266987 189.34858439305455 229.13533342514648 187.7685161307704Q230.1258239776231 186.1884478684863 231.47006115598418 184.5376302810253L231.47006115598418 184.5376302810253Q232.6256334672069 183.8773032460409 233.12087874344522 182.8868126935643L233.12087874344522 182.8868126935643Q235.78576999177514 180.05683968648827 237.83750042190525 178.07585858153504Q239.91281396042768 176.0712943681895 241.9173781737732 173.92523150449023L241.9173781737732 173.92523150449023Q242.9078687262498 172.7696591932675 244.32285522978782 171.8499179659678Q245.71425862493354 170.93017673866808 247.55374107953295 170.60001322117586L247.55374107953295 170.60001322117586Q250.3601309782167 169.6095226686993 251.6100357230086 169.7038551022685Q252.8599404678005 169.7746044274454 254.3456762965154 169.4444409099532L254.3456762965154 169.4444409099532Q256.4917391602147 170.2698497036837 257.5765621462605 171.944250399537Q258.66138513230635 173.595067986998 259.8169574435291 175.41096733320512L259.8169574435291 175.41096733320512Q260.31220271976736 176.23637612693562 260.5716169120826 176.8259538367431Q260.80744799600564 177.41553154655065 261.30269327224397 178.24094034028116L261.30269327224397 178.24094034028116Q261.96302030722836 179.89175792774216 262.64693045060505 182.22648565857986Q263.3072574855895 184.5376302810253 262.481848691859 187.2025215293552L262.481848691859 187.2025215293552Q262.3167669331129 189.34858439305455 261.63285678973614 191.75406144906916Q260.9725297547518 194.15953850508376 260.4772844785134 196.63576488627533L260.4772844785134 196.63576488627533Q260.31220271976736 197.64983854714424 260.31220271976736 198.5459966660516Q260.31220271976736 199.4657378933513 260.14712096102124 200.78639196332014L260.14712096102124 200.78639196332014Q259.98203920227513 202.27212779203504 259.39246149246765 203.85219605431914Q258.8264668910524 205.43226431660324 258.3312216148141 206.9180001453182L258.3312216148141 206.9180001453182Q257.6708945798297 208.7574825999176 257.5058128210836 210.64413127130163Q257.34073106233757 212.55436305107796 257.01056754484534 214.39384550567732L257.01056754484534 214.39384550567732Q256.1615756427225 219.3698813764527 254.9352540063229 224.2515848136588Q253.685349261531 229.13328825086498 252.6948587090544 234.1093241216403L252.6948587090544 234.1093241216403Q252.19961343281608 236.93929712871633 251.18553977194716 239.58060526865395Q250.19504921947058 242.24549651698388 249.36964042574007 244.8868046569215L249.36964042574007 244.8868046569215Q248.70931339075565 245.5707148002982 248.44989919844036 246.79703643669782Q248.21406811451735 248.04694118148976 247.88390459702515 249.20251349271243L247.88390459702515 249.20251349271243Q246.56325052705634 252.85789529351896 245.71425862493354 256.4189446607563Q244.88884983120303 259.9799940279936 245.05393158994914 263.6353758288002L245.05393158994914 263.6353758288002Q245.05393158994914 266.27668396873776 244.72376807245692 268.8472427834985Q244.39360455496472 271.4178015982592 244.06344103747253 274.2477746053353L244.06344103747253 274.2477746053353Q245.05393158994914 274.0826928465891 245.38409510744134 272.5969570178743L245.38409510744134 272.5969570178743Q246.72833228580245 271.25271983951313 247.55374107953295 269.8613164443674Q248.37914987326346 268.4463299408294 249.20455866699396 267.1256758708606L249.20455866699396 267.1256758708606Q249.53472218448616 266.6304305946222 249.86488570197835 266.27668396873776Q250.19504921947058 265.94652045124553 250.52521273696277 265.45127517500725L250.52521273696277 265.45127517500725Q250.85537625445497 264.956029898769 251.1147904467703 264.39003529735373Q251.35062153069327 263.80045758754625 251.70436815657777 263.1401305525618L251.70436815657777 263.1401305525618Q252.6948587090544 261.819476482593 254.0155127790232 260.475239304232Q255.33616684899204 259.1545852342631 256.4917391602147 257.66884940554814L256.4917391602147 257.66884940554814Q257.34073106233757 256.34819533557936 258.0010580973219 255.00395815721825Q258.66138513230635 253.68330408724947 259.65187568478296 252.69281353477285L259.65187568478296 252.69281353477285Q262.1281020659744 248.70726821647415 264.7929933143044 244.9811370904907Q267.434301454242 241.25500596450726 270.26427446131805 237.76470592244684L270.26427446131805 237.76470592244684Q274.579983297109 231.963261257941 278.5655286154077 226.75139430324262Q282.52749082531415 221.51594424015198 286.84319966110513 216.37482661063055L286.84319966110513 216.37482661063055Q287.8336902135817 214.2287637469312 289.508090909435 212.48361372590105Q291.15890849689606 210.73846370487084 292.6446443256109 209.08764611740978L292.6446443256109 209.08764611740978Q293.30497136059535 208.42731908242538 293.8002166368336 207.6726596138718Q294.31904502146426 206.9180001453182 294.97937205644865 206.4227548690799L294.97937205644865 206.4227548690799Q297.29051667889405 203.61636497039612 299.5309119761626 200.88072439688935Q301.77130727343115 198.14508382338252 303.91737013713043 195.3151108163065L303.91737013713043 195.3151108163065Q304.76636203925324 193.99445674633765 305.5917708329838 192.50872091762275Q306.4171796267143 190.99940198051556 307.7378336966831 189.84382966929283L307.7378336966831 189.84382966929283Q309.05848776665187 188.52317559932405 309.7188148016363 187.2025215293552Q310.402724945013 185.85828435099413 311.39321549748956 184.7027120397714L311.39321549748956 184.7027120397714Q312.38370604996624 183.71222148729478 312.7138695674584 183.21697621105648L312.7138695674584 183.21697621105648Q313.04403308495057 182.8868126935643 313.3741966024428 182.55664917607209Q313.704360119935 182.22648565857986 314.03452363742724 181.8963221410877L314.03452363742724 181.8963221410877Q315.0250141899038 180.3870032039805 315.7089243332805 180.05683968648827Q316.36925136826494 179.72667616899605 316.6994148857571 179.23143089275777L316.6994148857571 179.23143089275777Q317.8549871969799 178.73618561651944 318.77472842427954 178.24094034028116Q319.67088654318695 177.74569506404282 320.49629533691746 177.25044978780454L320.49629533691746 177.25044978780454Q321.6754507565324 176.92028627031232 322.4065271166938 176.33070856050483Q323.16118658524744 175.74113085069735 324.3167588964701 175.41096733320512L324.3167588964701 175.41096733320512Q324.9770859314545 174.75064029822073 325.802494725185 174.3497274555516Q326.6514866273078 173.92523150449023 327.4768954210383 173.4299862282519L327.4768954210383 173.4299862282519Q328.13722245602276 173.09982271075972 328.63246773226103 172.7696591932675Q329.1277130084993 172.43949567577528 329.62295828473765 172.1093321582831L329.62295828473765 172.1093321582831Q331.95768601557535 174.2553950219824 331.462440739337 176.33070856050483Q330.9436123547065 178.40602209902727 330.118203560976 179.89175792774216L330.118203560976 179.89175792774216Q329.62295828473765 180.71716672147267 328.7975494910071 181.37749375645706Q327.97214069727664 182.0614038998338 327.31181366229225 182.7217309348182L327.31181366229225 182.7217309348182Q325.9911595923234 184.042385004787 324.9063366062776 185.3630390747558Q323.82151362023177 186.68369314472463 322.6659413090091 188.35809384057794L322.6659413090091 188.35809384057794Q321.34528723904026 190.50415670427722 319.43505545926394 192.67380267636887Q317.52482367948767 194.8198655400682 315.87400609202666 196.63576488627533L315.87400609202666 196.63576488627533Q315.54384257453444 197.29609192125972 315.119346623473 197.8149203058903Q314.69485067241163 198.31016558212863 314.3646871549194 198.8054108583669L314.3646871549194 198.8054108583669Q313.704360119935 199.63081965209741 313.3741966024428 200.385479120651Q313.04403308495057 201.1165554808123 312.21862429122007 201.44671899830453L312.21862429122007 201.44671899830453Q311.8884607737279 202.27212779203504 311.2281337387435 202.76737306827332Q310.56780670375906 203.28620145290395 310.23764318626684 204.11161024663446L310.23764318626684 204.11161024663446Q308.72832424915964 205.43226431660324 307.40767017919086 207.41324542155647L307.40767017919086 207.41324542155647Q306.4171796267143 208.7574825999176 306.25209786796813 208.82823192509446Q306.087016109222 208.92256435866366 305.92193435047596 209.08764611740978L305.92193435047596 209.08764611740978Q304.5776971721148 211.23370898110912 303.257043102146 212.55436305107796L303.257043102146 212.55436305107796Q302.5967160671616 213.3797718448084 302.1014707909233 214.72400902316954L302.1014707909233 214.72400902316954Q301.2760619971928 215.54941781690005 300.7808167209545 216.63424080294587Q300.2855714447162 217.6954806805994 299.4601626509857 218.87463610021442L299.4601626509857 218.87463610021442Q299.1064160251012 219.3698813764527 298.776252507609 219.86512665269098Q298.4460889901168 220.36037192892925 298.11592547262455 221.0206989639137L298.11592547262455 221.0206989639137Q297.45559843764016 222.34135303388248 296.889603836225 223.4969253451052Q296.3000261264175 224.67608076472024 295.47461733268693 225.99673483468902L295.47461733268693 225.99673483468902Q294.81429029770254 227.31738890465786 294.31904502146426 228.30787945713448Q293.8002166368336 229.2983700096111 292.9748078431031 230.31244367047995L292.9748078431031 230.31244367047995Q291.3239902556421 232.12834301668707 289.6731726681811 234.43948763913252Q287.99877197232775 236.77421536997022 286.1828726261207 238.42503295743123L286.1828726261207 238.42503295743123Q285.85270910862846 239.25044175116173 285.263131398821 239.74568702740007Q284.69713679740573 240.26451541203065 284.20189152116745 240.9248424470151L284.20189152116745 240.9248424470151Q282.8576543428063 242.5756600344761 281.7964144651528 244.2264776219371Q280.711591479107 245.90087831779041 279.39093740913825 247.55169590525142L279.39093740913825 247.55169590525142Q278.5655286154077 248.70726821647415 277.8108691468541 249.6977587689507Q277.0562096783005 250.71183242981968 276.23080088457 251.86740474104235L276.23080088457 251.86740474104235Q275.4053920908395 252.69281353477285 274.6507326222859 253.68330408724947Q273.9196562621246 254.67379463972608 273.0942474683941 255.8293669509488L273.0942474683941 255.8293669509488Q272.41033732501734 256.6783588530716 271.84434272360215 257.4094352132329Q271.25476501379467 258.16409468178654 270.75951973755633 259.1545852342631L270.75951973755633 259.1545852342631Q269.43886566758755 260.14507578673977 268.68420619903395 261.7251440490238Q267.9531298388726 263.30521231130797 266.4438109017654 264.4607846225307L266.4438109017654 264.4607846225307Q265.4533203492888 266.1116022099917 264.4628297968122 267.69167047227575Q263.47233924433556 269.2717387345599 262.1281020659744 271.0876380807671L262.1281020659744 271.0876380807671Q261.79793854848225 271.7479651157514 261.5621074645593 272.26679350038205Q261.30269327224397 272.76203877662033 261.13761151349786 273.7525293290969L261.13761151349786 273.7525293290969Q260.80744799600564 274.5779381228274 260.31220271976736 275.0731833990658Q259.8169574435291 275.56842867530406 259.65187568478296 276.39383746903457L259.65187568478296 276.39383746903457Q256.32665740146865 280.37938278733327 254.1805945377693 283.61026863707843Q252.03453167407 286.8411544868236 249.36964042574007 289.5060457351535L249.36964042574007 289.5060457351535Q248.37914987326346 290.99178156386836 247.45940864596375 291.98227211634503Q246.56325052705634 292.9727626688216 246.04442214242573 294.31699984718273L246.04442214242573 294.31699984718273Q245.05393158994914 295.8027356758977 243.56819576123422 297.21772217943567Q242.0824599325193 298.63270868297366 240.408059236666 299.7882809941964L240.408059236666 299.7882809941964Q239.41756868418938 300.6136897879269 238.09691461422057 300.4486080291807Q236.77626054425173 300.28352627043466 235.95085175052122 298.9628722004659L235.95085175052122 298.9628722004659Q233.78120577842964 297.7837167808508 233.3802929357605 296.88755866194344Q232.95579698469913 295.96781743464373 231.96530643222252 294.64716336467495L231.96530643222252 294.64716336467495Q229.960742218877 294.31699984718273 230.4795706035076 291.98227211634503Q230.9748158797459 289.6711274938996 231.3049793972381 287.50148152180793L231.3049793972381 287.50148152180793Q231.6351429147303 285.0252551406164 231.8709739986533 282.19528213354045Q232.1303881909686 279.3888922348567 232.2954699497147 276.5589192277806L232.2954699497147 276.5589192277806Q232.4605517084608 272.9271205353664 232.6256334672069 269.2717387345599Q232.79071522595302 265.6163569337533 233.12087874344522 261.819476482593L233.12087874344522 261.819476482593Q233.2859605021913 261.32423120635474 233.21521117701442 260.8997352552933Q233.12087874344522 260.475239304232 233.12087874344522 259.9799940279936L233.12087874344522 259.9799940279936Q233.12087874344522 259.1545852342631 233.2859605021913 258.3291764405326Q233.45104226093744 257.5037676468021 233.45104226093744 256.51327709432553L233.45104226093744 256.51327709432553Q233.45104226093744 255.6642851922027 233.45104226093744 255.00395815721825Q233.45104226093744 254.34363112223386 233.61612401968353 253.51822232850336L233.61612401968353 253.51822232850336Q233.78120577842964 250.35808580393515 234.53586524698324 247.71677766399753Q235.26694160714453 245.0518864156676 235.95085175052122 242.08041475823777L235.95085175052122 242.08041475823777Q237.10642406174395 239.08535999241568 237.83750042190525 235.8544741426705Q238.59215989045884 232.6235882929254 239.41756868418938 229.48703487674945L239.41756868418938 229.48703487674945Q240.7382227541582 225.66657131719685 241.587214656281 221.0206989639137L241.587214656281 221.0206989639137Q241.75229641502708 220.52545368767542 241.65796398145787 219.93587597786788Q241.587214656281 219.3698813764527 241.75229641502708 218.87463610021442L241.75229641502708 218.87463610021442Q241.9173781737732 218.02564419809156 242.1532092576962 217.36531716310716Q242.4126234500115 216.70499012812277 242.2475416912654 215.87958133439227L242.2475416912654 215.87958133439227Q242.9078687262498 212.719444809824 243.47386332766501 210.73846370487084Q244.06344103747253 208.7574825999176 244.88884983120303 206.4227548690799L244.88884983120303 206.4227548690799Q245.21901334869523 205.59734607534935 245.31334578226443 205.00776836554186Q245.38409510744134 204.44177376412668 245.54917686618742 203.78144672914223L245.54917686618742 203.78144672914223Q246.20950390117181 202.27212779203504 246.96416336972544 200.385479120651Q247.71882283827904 198.4752473408747 248.37914987326346 196.63576488627533L248.37914987326346 196.63576488627533Q248.87439514950177 195.3151108163065 249.46397285930925 193.8293749875916Q250.02996746072446 192.3436391588767 250.3601309782167 190.99940198051556L250.3601309782167 190.99940198051556Q250.85537625445497 187.53268504684743 250.85537625445497 185.3630390747558Q250.85537625445497 183.21697621105648 250.02996746072446 181.54257551520317Z " fill="#f19041" transform="matrix(2.2499999313354513,0,0,2.2499999313354517,0,-249.99999084472722)"/><path d="MNaN 244.44444105360233 " fill="black" transform="matrix(2.2499999313354513,0,0,2.2499999313354517,0,-249.99999084472722)"/></g></svg>